# xmcd
#
# Track frame offsets:
#	150
#	16730
#	30867
#	45086
#	59107
#	74768
#	89814
#	102068
#	115088
#	134750
#	152298
#	166872
#	180723
#
# Disc length: 2643 seconds
#
# Revision: 1
# Processed by: cddbd v1.5.2PL0 Copyright (c) Steve Scherf et al.
# Submitted via: audiograbber 1.83.01
#
DISCID=a30a510d
DTITLE=Don Allen - 90 Proof
DYEAR=2015
DGENRE=Country
TTITLE0=Do You Belive Me Now
TTITLE1=Talkin´ Dirty
TTITLE2=Beatiful Lady
TTITLE3=In The Ghetto
TTITLE4=When Will We Learn
TTITLE5=What If
TTITLE6=Old 45´s
TTITLE7=The Anniversary
TTITLE8=The Wagon
TTITLE9=Old Friends
TTITLE10=How Can I Belive In You
TTITLE11=Better In Heaven
TTITLE12=You Aint Gotta Go Home
EXTD=
EXTT0=
EXTT1=
EXTT2=
EXTT3=
EXTT4=
EXTT5=
EXTT6=
EXTT7=
EXTT8=
EXTT9=
EXTT10=
EXTT11=
EXTT12=
PLAYORDER=
